# xmcd CD database file
#
# Track frame offsets:
#	150
#	25471
#	44068
#	72070
#	105363
#	124329
#	143506
#	165559
#	191133
#	204986
#	244499
#	276489
#	294237
#	323397
#
# Disc length: 4557 seconds
#
# Revision: 0
# Processed by: cddbd v1.5.2PL0 Copyright (c) Steve Scherf et al.
# Submitted via: CDex 1.70beta3
#
DISCID=cf11cb0e
DTITLE=Various Artist - カフェで流れるジャズ・ピアノ偏
DYEAR=2011
DGENRE=Jazz
TTITLE0=Moon Rive - Wakai Project
TTITLE1=C Jam Blues - Wakai Project
TTITLE2=Solheverv - Kristian Marcussen Trio
TTITLE3=When It's Sleepy time Down South - Peter Rosendal Trio
TTITLE4=Caravan - Wakai Project
TTITLE5=Don't Know Why - Manami Morita
TTITLE6=Nighttime - Morten Steen
TTITLE7=Dog Star - Nomoto Harumi Torio
TTITLE8=Fragments - 黒木千波留
TTITLE9=Setti Sensi /Melo Mafali
TTITLE10=Love and Peace - Horace Parｌan
TTITLE11=バガテル イ短調「エリーゼのために」WoO.59 - Silver Lining
TTITLE12=Over The Rainbow - Mads Vinding &Jacob Fischer
TTITLE13=Change - 松下美千代
EXTD=YEAR: 2011
EXTT0=
EXTT1=
EXTT2=
EXTT3=
EXTT4=
EXTT5=
EXTT6=
EXTT7=
EXTT8=
EXTT9=
EXTT10=
EXTT11=
EXTT12=
EXTT13=
PLAYORDER=
